<svg width="52" height="38" viewBox="0 0 52 38" fill="none" xmlns="http://www.w3.org/2000/svg">
<mask id="path-1-inside-1_75_130" fill="white">
<path fill-rule="evenodd" clip-rule="evenodd" d="M38.0714 0C32.9114 0 28.4068 2.42475 26 6.02767C23.5932 2.42475 19.0886 0 13.9286 0C6.23603 0 0 5.38899 0 12.0367C0 12.401 0.0870965 12.7484 0.253008 13.0795L0.126145 13.0783L0.421941 13.3709C0.691692 13.7797 1.08493 14.1626 1.58461 14.5211L25.3173 38L49.3378 15.2741C50.9978 14.455 52 13.3986 52 12.0367C52 5.38899 45.764 0 38.0714 0Z"/>
</mask>
<path fill-rule="evenodd" clip-rule="evenodd" d="M38.0714 0C32.9114 0 28.4068 2.42475 26 6.02767C23.5932 2.42475 19.0886 0 13.9286 0C6.23603 0 0 5.38899 0 12.0367C0 12.401 0.0870965 12.7484 0.253008 13.0795L0.126145 13.0783L0.421941 13.3709C0.691692 13.7797 1.08493 14.1626 1.58461 14.5211L25.3173 38L49.3378 15.2741C50.9978 14.455 52 13.3986 52 12.0367C52 5.38899 45.764 0 38.0714 0Z" fill="white"/>
<path d="M26 6.02767L25.1685 6.58314L26 7.82794L26.8315 6.58314L26 6.02767ZM0.253008 13.0795L0.243424 14.0794L1.8805 14.0951L1.14704 12.6315L0.253008 13.0795ZM0.126145 13.0783L0.135729 12.0783L-2.33039 12.0547L-0.57715 13.7892L0.126145 13.0783ZM0.421941 13.3709L1.25662 12.8202L1.19927 12.7332L1.12524 12.66L0.421941 13.3709ZM1.58461 14.5211L2.28791 13.8102L2.23176 13.7547L2.16758 13.7086L1.58461 14.5211ZM25.3173 38L24.614 38.7109L25.3018 39.3913L26.0046 38.7264L25.3173 38ZM49.3378 15.2741L48.8953 14.3773L48.7601 14.444L48.6505 14.5477L49.3378 15.2741ZM26.8315 6.58314C29.0368 3.2819 33.2156 1 38.0714 1V-1C32.6072 -1 27.7768 1.5676 25.1685 5.4722L26.8315 6.58314ZM13.9286 1C18.7844 1 22.9632 3.28191 25.1685 6.58314L26.8315 5.4722C24.2232 1.5676 19.3928 -1 13.9286 -1V1ZM1 12.0367C1 6.07332 6.6463 1 13.9286 1V-1C5.82576 -1 -1 4.70466 -1 12.0367H1ZM1.14704 12.6315C1.04603 12.4299 1 12.2352 1 12.0367H-1C-1 12.5669 -0.871838 13.0669 -0.641019 13.5275L1.14704 12.6315ZM0.11656 14.0782L0.243424 14.0794L0.262592 12.0795L0.135729 12.0783L0.11656 14.0782ZM1.12524 12.66L0.829439 12.3674L-0.57715 13.7892L-0.281354 14.0818L1.12524 12.66ZM2.16758 13.7086C1.73523 13.3984 1.4405 13.0988 1.25662 12.8202L-0.412736 13.9216C-0.057113 14.4606 0.434624 14.9268 1.00164 15.3336L2.16758 13.7086ZM26.0206 37.2891L2.28791 13.8102L0.881315 15.232L24.614 38.7109L26.0206 37.2891ZM48.6505 14.5477L24.63 37.2736L26.0046 38.7264L50.0251 16.0005L48.6505 14.5477ZM51 12.0367C51 12.8113 50.4502 13.6101 48.8953 14.3773L49.7803 16.1708C51.5454 15.2999 53 13.9858 53 12.0367H51ZM38.0714 1C45.3537 1 51 6.07332 51 12.0367H53C53 4.70466 46.1742 -1 38.0714 -1V1Z" fill="#4A0702" mask="url(#path-1-inside-1_75_130)"/>
</svg>
