<svg width="64" height="43" viewBox="0 0 64 43" fill="none" xmlns="http://www.w3.org/2000/svg">
<path d="M48.3002 20.64C48.3002 31.8715 41.0139 40.78 32.243 40.78C23.4721 40.78 16.1858 31.8715 16.1858 20.64C16.1858 9.40849 23.4721 0.5 32.243 0.5C41.0139 0.5 48.3002 9.40849 48.3002 20.64Z" fill="white" stroke="#4A0702"/>
<path d="M31.3716 14.26H43.3353C46.5067 14.26 49.4144 16.0256 50.8772 18.8395L56.72 30.0795C59.6615 35.738 55.5555 42.5 49.1782 42.5H15.439C8.92725 42.5 4.8339 35.4781 8.04249 29.8117L14.4072 18.5717C15.916 15.9071 18.7415 14.26 21.8037 14.26H31.3716Z" fill="white" stroke="#4A0702"/>
</svg>
